<?xml version="1.0" encoding="UTF-8" standalone="no"?>
<!DOCTYPE svg PUBLIC "-//W3C//DTD SVG 1.1//EN" "http://www.w3.org/Graphics/SVG/1.1/DTD/svg11.dtd">
<svg width="100%" height="100%" viewBox="0 0 3542 1167" version="1.1" xmlns="http://www.w3.org/2000/svg" xmlns:xlink="http://www.w3.org/1999/xlink" xml:space="preserve" xmlns:serif="http://www.serif.com/" style="fill-rule:evenodd;clip-rule:evenodd;stroke-linejoin:round;stroke-miterlimit:2;">
    <g transform="matrix(9.94798,0,0,9.94798,314.626,313.659)">
        <g id="Layer-1" serif:id="Layer 1">
            <path d="M0,54.305C-0.551,53.752 -1.166,53.427 -1.84,53.339C-2.515,53.245 -3.191,53.2 -3.864,53.2C-4.172,53.2 -4.571,53.138 -5.061,53.015C-5.554,52.89 -5.952,52.771 -6.258,52.647C-6.441,52.405 -6.643,51.927 -6.857,51.22C-7.072,50.512 -7.271,49.764 -7.454,48.967C-7.64,48.165 -7.793,47.416 -7.917,46.708C-8.038,46.004 -8.101,45.499 -8.101,45.193L-8.101,-5.525C-8.101,-7.426 -7.578,-8.682 -6.534,-9.297C-5.492,-9.913 -4.141,-10.368 -2.484,-10.678C-1.872,-10.801 -1.595,-11.091 -1.657,-11.551C-1.717,-12.011 -2.056,-12.275 -2.67,-12.333C-4.448,-12.458 -6.198,-12.488 -7.917,-12.425C-9.635,-12.364 -11.351,-12.333 -13.07,-12.333C-14.849,-12.333 -16.614,-12.348 -18.361,-12.38C-20.11,-12.41 -21.875,-12.364 -23.654,-12.241C-24.206,-12.181 -24.482,-11.903 -24.482,-11.412C-24.482,-10.922 -24.206,-10.647 -23.654,-10.585C-22.059,-10.4 -20.68,-9.959 -19.514,-9.251C-18.348,-8.544 -17.764,-7.271 -17.764,-5.431L-17.764,44.822C-17.764,45.437 -17.81,46.191 -17.901,47.079C-17.994,47.969 -18.178,48.842 -18.453,49.701C-18.729,50.559 -19.082,51.297 -19.514,51.909C-19.941,52.524 -20.495,52.832 -21.169,52.832C-21.354,52.832 -21.86,52.937 -22.687,53.154C-23.517,53.37 -24.083,53.412 -24.391,53.293C-24.635,53.168 -24.881,53.184 -25.127,53.339C-25.372,53.49 -25.556,53.691 -25.68,53.935C-25.801,54.182 -25.863,54.426 -25.863,54.673C-25.863,54.916 -25.74,55.103 -25.496,55.226C-25.065,55.408 -23.762,55.454 -21.583,55.361C-19.404,55.272 -16.967,55.226 -14.267,55.226C-12.61,55.226 -10.984,55.242 -9.387,55.272C-7.793,55.299 -6.351,55.345 -5.061,55.408C-3.773,55.469 -2.73,55.516 -1.934,55.546C-1.134,55.577 -0.735,55.593 -0.735,55.593C-0.246,55.593 0.077,55.454 0.231,55.18C0.385,54.902 0.307,54.612 0,54.305M76.487,-9.665L76.304,-11.231C74.094,-11.354 71.885,-11.396 69.673,-11.366C67.465,-11.335 65.289,-11.319 63.141,-11.319L56.513,-11.319C56.024,-11.319 55.701,-11.17 55.547,-10.859C55.393,-10.554 55.5,-10.28 55.869,-10.032C56.176,-9.665 56.59,-9.418 57.112,-9.297C57.633,-9.174 58.231,-9.05 58.907,-8.93C59.458,-8.807 60.012,-8.682 60.564,-8.559C61.116,-8.435 61.621,-8.177 62.082,-7.778C62.542,-7.38 62.926,-6.78 63.232,-5.984C63.54,-5.184 63.693,-4.082 63.693,-2.671C63.693,4.08 63.799,10.799 64.014,17.488C64.23,24.176 64.337,30.896 64.337,37.646C64.337,38.133 64.323,38.609 64.292,39.074C64.261,39.529 64.246,40.008 64.246,40.499C48.045,22.642 31.448,5.031 14.452,-12.333C13.96,-12.704 13.468,-12.704 12.979,-12.333C12.609,-11.965 12.302,-11.613 12.06,-11.273C11.813,-10.937 11.689,-10.523 11.689,-10.032L11.689,47.953C11.689,49.488 11.245,50.729 10.354,51.681C9.465,52.631 8.314,53.262 6.903,53.566L5.616,53.845C5.063,53.965 4.74,54.243 4.647,54.673C4.555,55.103 4.787,55.377 5.337,55.5C6.812,55.806 8.376,55.852 10.032,55.639C11.689,55.423 13.315,55.345 14.911,55.408L26.6,55.685C27.09,55.685 27.428,55.516 27.612,55.18C27.796,54.84 27.674,54.55 27.245,54.305C26.571,53.873 25.91,53.552 25.266,53.339C24.622,53.122 23.992,52.951 23.379,52.832C22.826,52.708 22.274,52.539 21.723,52.326C21.169,52.11 20.696,51.758 20.296,51.266C19.897,50.776 19.575,50.1 19.329,49.242C19.084,48.382 18.962,47.215 18.962,45.742C18.962,42.676 18.9,39.622 18.776,36.587C18.654,33.548 18.531,30.466 18.409,27.335C18.285,24.33 18.163,21.323 18.042,18.316C17.918,15.31 17.856,12.272 17.856,9.202C17.856,7.61 17.949,5.919 18.132,4.142C19.237,5.367 20.159,6.38 20.893,7.18C21.629,7.976 22.521,8.99 23.562,10.214C27.06,14.081 30.618,18.026 34.239,22.042C37.86,26.063 41.525,30.053 45.239,34.009C48.95,37.966 52.725,41.818 56.559,45.561C60.396,49.303 64.275,52.832 68.201,56.145C68.572,56.39 68.955,56.452 69.352,56.328C69.752,56.208 69.982,55.96 70.043,55.593C70.841,45.406 71.194,35.191 71.102,24.943C71.01,14.696 70.964,4.447 70.964,-5.799C70.964,-6.843 71.441,-7.547 72.391,-7.917C73.342,-8.285 74.306,-8.621 75.291,-8.93C75.474,-8.992 75.674,-9.112 75.888,-9.297C76.102,-9.479 76.304,-9.603 76.487,-9.665M119.287,37.46C119.287,35.252 118.873,33.196 118.042,31.293C117.218,29.392 116.125,27.597 114.776,25.908C113.425,24.222 111.892,22.611 110.173,21.076C108.455,19.543 106.708,18.041 104.928,16.567C103.455,15.276 101.999,14.02 100.557,12.793C99.114,11.564 97.825,10.292 96.69,8.975C95.554,7.652 94.65,6.287 93.975,4.875C93.3,3.464 92.961,1.961 92.961,0.368C92.961,-1.167 93.237,-2.562 93.791,-3.819C94.342,-5.08 95.093,-6.166 96.044,-7.09C96.995,-8.01 98.102,-8.714 99.361,-9.205C100.616,-9.696 101.953,-9.94 103.363,-9.94C104.836,-9.94 106.202,-9.711 107.459,-9.251C108.714,-8.792 109.836,-8.13 110.817,-7.271C111.8,-6.414 112.551,-5.37 113.074,-4.144C113.592,-2.915 113.857,-1.535 113.857,0C113.857,0.43 114.101,0.704 114.589,0.827C115.083,0.951 115.482,0.86 115.79,0.553C116.648,-0.614 117.139,-2.071 117.261,-3.819C117.384,-5.567 117.447,-7.271 117.447,-8.93L117.447,-12.241C117.447,-12.673 117.2,-12.947 116.709,-13.072C113.885,-13.868 110.848,-14.265 107.596,-14.265C105.264,-14.265 102.717,-13.96 99.957,-13.345C97.197,-12.736 94.62,-11.768 92.226,-10.446C89.833,-9.128 87.824,-7.458 86.198,-5.431C84.57,-3.405 83.757,-0.982 83.757,1.841C83.757,3.742 84.172,5.599 85.001,7.409C85.827,9.218 86.918,11.015 88.268,12.793C89.619,14.573 91.167,16.324 92.914,18.041C94.665,19.757 96.43,21.478 98.207,23.194L98.207,23.102C99.804,24.699 101.367,26.259 102.904,27.794C104.437,29.33 105.801,30.848 107,32.353C108.195,33.858 109.162,35.373 109.896,36.908C110.634,38.443 111.002,39.977 111.002,41.509C111.002,43.106 110.619,44.547 109.852,45.835C109.085,47.126 108.103,48.228 106.908,49.148C105.71,50.069 104.374,50.776 102.904,51.266C101.43,51.758 99.987,52.002 98.579,52.002C96.983,52.002 95.448,51.758 93.975,51.266C92.501,50.776 91.183,50.069 90.017,49.148C88.851,48.228 87.946,47.11 87.302,45.788C86.656,44.47 86.396,42.982 86.518,41.326L86.612,39.853C86.612,39.606 86.518,39.425 86.333,39.3C86.152,39.177 85.905,39.116 85.598,39.116C85.354,39.116 85.123,39.161 84.907,39.254C84.695,39.348 84.555,39.517 84.495,39.761C84.373,40.252 84.25,40.789 84.127,41.373C84.002,41.956 83.88,42.584 83.757,43.26C83.513,44.117 83.297,44.977 83.114,45.835C82.93,46.697 82.837,47.617 82.837,48.599C82.837,50.192 83.221,51.541 83.988,52.647C84.754,53.752 85.721,54.627 86.887,55.272C88.053,55.913 89.34,56.374 90.754,56.649C92.163,56.927 93.514,57.067 94.804,57.067C97.441,57.067 100.204,56.591 103.087,55.639C105.97,54.689 108.61,53.351 111.002,51.635C113.396,49.917 115.375,47.862 116.939,45.467C118.503,43.076 119.287,40.408 119.287,37.46M164.846,43.72C164.909,43.473 164.831,43.276 164.615,43.121C164.402,42.966 164.171,42.873 163.927,42.847C163.68,42.815 163.433,42.831 163.189,42.893C162.945,42.954 162.79,43.106 162.73,43.354C162.054,46.114 160.75,48.198 158.82,49.609C156.884,51.019 154.599,51.727 151.96,51.727C149.935,51.727 147.833,51.313 145.655,50.486C143.475,49.655 141.836,48.289 140.731,46.388L140.731,21.535L145.61,21.535C146.958,21.535 148.326,21.581 149.705,21.674C151.085,21.768 152.359,21.921 153.525,22.135C154.691,22.352 155.456,22.642 155.826,23.008C156.133,23.256 156.364,23.655 156.516,24.207C156.671,24.76 156.839,25.309 157.023,25.862C157.147,26.229 157.315,26.662 157.53,27.154C157.743,27.645 158.034,28.073 158.405,28.441C158.772,28.746 159.171,28.839 159.599,28.715C160.033,28.595 160.246,28.347 160.246,27.981C160.429,25.587 160.705,23.256 161.073,20.987C161.193,20.066 161.317,19.126 161.44,18.181C161.564,17.225 161.687,16.288 161.808,15.369C161.871,15.064 161.748,14.817 161.44,14.634C161.133,14.449 160.796,14.387 160.429,14.449C160.122,14.511 159.705,14.65 159.184,14.863C158.665,15.079 158.066,15.338 157.391,15.648C156.779,15.952 156.165,16.216 155.55,16.428C154.935,16.644 154.478,16.749 154.168,16.749L140.639,16.749L140.639,-7.825C141.13,-7.702 141.454,-7.671 141.606,-7.732C141.758,-7.794 142.081,-7.825 142.572,-7.825L144.502,-7.825C145.18,-7.825 145.826,-7.855 146.438,-7.917C146.989,-7.976 147.543,-8.01 148.094,-8.01L149.66,-8.01C152.175,-8.01 154.248,-7.562 155.873,-6.673C157.499,-5.783 158.433,-3.928 158.68,-1.105C158.741,-0.614 159.08,-0.367 159.691,-0.367C160.305,-0.367 160.676,-0.614 160.796,-1.105C160.857,-1.411 160.92,-1.658 160.983,-1.84C161.041,-2.025 161.104,-2.242 161.165,-2.485C161.532,-4.082 161.884,-5.737 162.222,-7.458C162.561,-9.174 162.822,-10.895 163.005,-12.611C163.068,-12.917 162.929,-13.148 162.59,-13.299C162.254,-13.454 161.871,-13.469 161.44,-13.345C160.705,-12.917 160.154,-12.704 159.783,-12.704L124.442,-12.704C123.949,-12.704 123.612,-12.519 123.428,-12.15C123.242,-11.78 123.397,-11.474 123.89,-11.231C124.502,-10.801 125.115,-10.462 125.729,-10.218C126.343,-9.974 126.987,-9.788 127.662,-9.665C128.092,-9.541 128.504,-9.418 128.906,-9.297C129.303,-9.174 129.673,-8.972 130.009,-8.698C130.348,-8.424 130.608,-8.038 130.792,-7.547C130.976,-7.054 131.068,-6.414 131.068,-5.614L131.068,45.654C131.068,46.697 131.004,47.691 130.883,48.641C130.76,49.593 130.516,50.44 130.148,51.174C129.778,51.909 129.243,52.493 128.536,52.925C127.83,53.351 126.897,53.598 125.729,53.659C125.115,53.659 124.793,53.919 124.762,54.441C124.731,54.963 125.022,55.226 125.637,55.226C127.848,55.469 130.208,55.623 132.722,55.685C135.241,55.747 137.788,55.775 140.364,55.775C141.777,55.775 143.187,55.759 144.597,55.729C146.009,55.701 147.419,55.685 148.833,55.685L160.521,55.685L162.178,55.226C162.669,55.226 162.976,55.009 163.097,54.581L163.373,52.368C163.557,50.9 163.759,49.442 163.971,48C164.187,46.557 164.478,45.131 164.846,43.72M200.88,-25.969L200.767,-27.89C197.301,-28.042 193.817,-28.173 190.311,-28.285C186.807,-28.397 183.323,-28.455 179.851,-28.455L174.539,-28.455C173.935,-28.455 173.539,-28.285 173.352,-27.944C173.163,-27.608 173.181,-27.249 173.41,-26.873C173.935,-26.042 174.596,-25.537 175.387,-25.346C176.18,-25.157 177.062,-25.063 178.044,-25.063C178.573,-25.063 179.079,-25.025 179.568,-24.948C180.058,-24.875 180.492,-24.65 180.871,-24.272C181.246,-23.896 181.566,-23.329 181.832,-22.578C182.096,-21.82 182.228,-20.769 182.228,-19.411L182.228,46.618C182.228,47.973 182.115,49.67 181.889,51.708C181.661,53.741 181.342,55.852 180.925,58.037C180.513,60.226 180.003,62.298 179.402,64.257C178.798,66.213 178.155,67.798 177.477,69.006C177.026,69.609 176.348,70.454 175.442,71.549C174.539,72.642 173.635,73.68 172.729,74.657C171.448,76.091 170.261,77.391 169.168,78.559C168.076,79.727 167.454,80.611 167.304,81.215C167.076,81.667 167.172,82.065 167.585,82.402C167.998,82.742 168.47,82.76 168.998,82.46C172.39,80.801 175.61,78.802 178.665,76.468C181.715,74.132 184.394,71.472 186.692,68.495C188.993,65.517 190.82,62.298 192.177,58.828C193.533,55.361 194.213,51.669 194.213,47.748L194.213,-19.524C194.213,-21.858 194.833,-23.425 196.078,-24.213C197.32,-25.006 198.924,-25.591 200.88,-25.969M250.071,43.72C250.131,43.473 250.055,43.276 249.84,43.121C249.625,42.966 249.394,42.873 249.152,42.847C248.905,42.815 248.659,42.831 248.415,42.893C248.169,42.954 248.015,43.106 247.955,43.354C247.28,46.114 245.974,48.198 244.042,49.609C242.109,51.019 239.825,51.727 237.185,51.727C235.158,51.727 233.057,51.313 230.88,50.486C228.701,49.655 227.059,48.289 225.957,46.388L225.957,21.535L230.835,21.535C232.182,21.535 233.55,21.581 234.929,21.674C236.311,21.768 237.582,21.921 238.75,22.135C239.914,22.352 240.68,22.642 241.053,23.008C241.358,23.256 241.589,23.655 241.739,24.207C241.894,24.76 242.062,25.309 242.246,25.862C242.369,26.229 242.537,26.662 242.755,27.154C242.97,27.645 243.259,28.073 243.629,28.441C243.997,28.746 244.394,28.839 244.825,28.715C245.255,28.595 245.467,28.347 245.467,27.981C245.654,25.587 245.93,23.256 246.297,20.987C246.421,20.066 246.544,19.126 246.666,18.181C246.789,17.225 246.91,16.288 247.033,15.369C247.093,15.064 246.972,14.817 246.666,14.634C246.358,14.449 246.022,14.387 245.654,14.449C245.347,14.511 244.932,14.65 244.41,14.863C243.889,15.079 243.291,15.338 242.616,15.648C242.004,15.952 241.387,16.216 240.775,16.428C240.161,16.644 239.701,16.749 239.394,16.749L225.865,16.749L225.865,-7.825C226.353,-7.702 226.676,-7.671 226.829,-7.732C226.983,-7.794 227.306,-7.825 227.797,-7.825L229.73,-7.825C230.402,-7.825 231.05,-7.855 231.663,-7.917C232.214,-7.976 232.765,-8.01 233.32,-8.01L234.885,-8.01C237.401,-8.01 239.47,-7.562 241.095,-6.673C242.723,-5.783 243.659,-3.928 243.905,-1.105C243.965,-0.614 244.304,-0.367 244.917,-0.367C245.531,-0.367 245.898,-0.614 246.022,-1.105C246.08,-1.411 246.142,-1.658 246.206,-1.84C246.266,-2.025 246.327,-2.242 246.389,-2.485C246.754,-4.082 247.109,-5.737 247.448,-7.458C247.784,-9.174 248.046,-10.895 248.233,-12.611C248.291,-12.917 248.154,-13.148 247.815,-13.299C247.479,-13.454 247.093,-13.469 246.666,-13.345C245.93,-12.917 245.378,-12.704 245.008,-12.704L209.667,-12.704C209.173,-12.704 208.837,-12.519 208.654,-12.15C208.467,-11.78 208.622,-11.474 209.113,-11.231C209.727,-10.801 210.339,-10.462 210.954,-10.218C211.566,-9.974 212.211,-9.788 212.886,-9.665C213.315,-9.541 213.73,-9.418 214.128,-9.297C214.528,-9.174 214.895,-8.972 215.232,-8.698C215.57,-8.424 215.833,-8.038 216.017,-7.547C216.198,-7.054 216.292,-6.414 216.292,-5.614L216.292,45.654C216.292,46.697 216.23,47.691 216.106,48.641C215.985,49.593 215.741,50.44 215.371,51.174C215.003,51.909 214.467,52.493 213.761,52.925C213.055,53.351 212.117,53.598 210.954,53.659C210.339,53.659 210.016,53.919 209.988,54.441C209.956,54.963 210.248,55.226 210.859,55.226C213.071,55.469 215.434,55.623 217.947,55.685C220.465,55.747 223.01,55.775 225.588,55.775C226.997,55.775 228.412,55.759 229.822,55.729C231.232,55.701 232.645,55.685 234.055,55.685L245.746,55.685L247.403,55.226C247.891,55.226 248.202,55.009 248.322,54.581L248.598,52.368C248.782,50.9 248.981,49.442 249.197,48C249.41,46.557 249.704,45.131 250.071,43.72M316.617,42.154C316.617,41.053 316.525,39.977 316.338,38.934L314.317,38.747C313.211,41.018 312.122,43.012 311.047,44.732C309.976,46.45 308.731,47.877 307.321,49.013C305.909,50.146 304.267,50.988 302.397,51.541C300.528,52.094 298.269,52.368 295.63,52.368C291.029,52.368 286.809,51.42 282.975,49.52C279.141,47.617 275.814,45.07 272.991,41.879C270.168,38.686 267.973,35.035 266.408,30.926C264.842,26.814 264.06,22.549 264.06,18.133C264.06,13.896 264.719,10.049 266.04,6.581C267.361,3.113 269.231,0.167 271.655,-2.257C274.079,-4.681 276.991,-6.569 280.396,-7.917C283.805,-9.266 287.624,-9.94 291.856,-9.94C294.435,-9.94 296.859,-9.603 299.127,-8.93C301.399,-8.255 303.426,-7.241 305.202,-5.892C306.982,-4.543 308.487,-2.869 309.713,-0.877C310.94,1.117 311.77,3.434 312.198,6.075C312.321,6.566 312.66,6.81 313.211,6.81C313.826,6.81 314.194,6.566 314.317,6.075C314.805,3.313 315.205,0.534 315.511,-2.257C315.819,-5.049 316.002,-7.855 316.063,-10.678C316.063,-11.231 315.758,-11.506 315.144,-11.506C313.611,-11.629 312.045,-11.796 310.452,-12.011C308.857,-12.227 307.258,-12.458 305.665,-12.704C303.516,-13.008 301.336,-13.299 299.127,-13.578C296.922,-13.852 294.679,-13.991 292.411,-13.991C290.446,-13.991 288.25,-13.868 285.827,-13.624C283.403,-13.377 280.998,-12.947 278.603,-12.333C276.21,-11.722 273.939,-10.922 271.793,-9.94C269.645,-8.957 267.865,-7.732 266.455,-6.258C262.65,-2.392 259.719,2.042 257.663,7.041C255.609,12.039 254.583,17.244 254.583,22.642C254.583,27.675 255.455,32.26 257.206,36.401C258.953,40.546 261.361,44.102 264.427,47.079C267.498,50.052 271.164,52.357 275.428,53.981C279.693,55.608 284.343,56.42 289.373,56.42C293.361,56.42 297.303,56.22 301.2,55.821C305.097,55.423 308.978,54.916 312.843,54.305C313.211,54.305 313.487,54.152 313.673,53.845C314.59,52.188 315.312,50.284 315.833,48.14C316.355,45.989 316.617,43.994 316.617,42.154" style="fill:white;fill-rule:nonzero;"/>
        </g>
    </g>
</svg>
